<svg width="23" height="23" viewBox="0 0 23 23" fill="none" xmlns="http://www.w3.org/2000/svg">
<g id="Group">
<path id="Vector" d="M13.2481 4.25886L14.8824 7.52743C15.1052 7.98243 15.6995 8.41886 16.2009 8.50243L19.1631 8.99457C21.0574 9.31029 21.5031 10.6846 20.1381 12.0403L17.8352 14.3431C17.4452 14.7331 17.2317 15.4853 17.3524 16.0239L18.0117 18.8746C18.5317 21.131 17.3338 22.0039 15.3374 20.8246L12.5609 19.181C12.0595 18.8839 11.2331 18.8839 10.7224 19.181L7.94594 20.8246C5.9588 22.0039 4.75166 21.1217 5.27166 18.8746L5.93094 16.0239C6.05166 15.4853 5.83809 14.7331 5.44809 14.3431L3.14523 12.0403C1.78951 10.6846 2.22594 9.31029 4.12023 8.99457L7.08237 8.50243C7.57451 8.41886 8.1688 7.98243 8.39166 7.52743L10.0259 4.25886C10.9174 2.48529 12.3659 2.48529 13.2481 4.25886Z" fill="#D17842"/>
</g>
</svg>
